####
#
# OBJ File Generated by Meshlab
#
####
# Object base_link.obj
#
# Vertices: 82
# Faces: 158
#
####
vn -1.570796 -1.570796 -1.570796
v -0.040000 -0.080000 -0.040000
vn -1.570796 -1.570796 1.570796
v -0.040000 -0.080000 0.040000
vn -1.570796 1.570796 -1.570796
v -0.040000 0.000000 -0.040000
vn -1.570796 1.570796 1.570796
v -0.040000 0.000000 0.040000
vn 1.570796 -1.570796 -1.570796
v 0.040000 -0.080000 -0.040000
vn 1.570796 1.570796 -1.570796
v 0.040000 0.000000 -0.040000
vn 1.570796 -1.570796 1.570796
v 0.040000 -0.080000 0.040000
vn 1.570796 1.570796 1.570796
v 0.040000 0.000000 0.040000
vn 1.070399 3.316125 -2.940898
v -0.003591 0.000000 0.009867
vn 1.564818 3.316126 -2.710346
v -0.005250 0.000000 0.009093
vn 2.011692 3.316126 -2.397442
v -0.006749 0.000000 0.008043
vn 2.397442 3.316126 -2.011692
v -0.008043 0.000000 0.006749
vn 2.710346 3.316126 -1.564818
v -0.009093 0.000000 0.005250
vn 3.082092 3.316125 0.543456
v -0.010340 0.000000 -0.001823
vn 2.940898 3.316125 1.070399
v -0.009867 0.000000 -0.003591
vn 2.710346 3.316126 1.564818
v -0.009093 0.000000 -0.005250
vn 2.940898 3.316125 -1.070399
v -0.009867 0.000000 0.003591
vn 3.082092 3.316125 -0.543456
v -0.010340 0.000000 0.001823
vn 3.129638 3.316126 -0.000000
v -0.010500 0.000000 0.000000
vn 2.397442 3.316126 2.011692
v -0.008043 0.000000 -0.006749
vn 2.011692 3.316126 2.397442
v -0.006749 0.000000 -0.008043
vn 1.564818 3.316126 2.710346
v -0.005250 0.000000 -0.009093
vn -2.011692 3.316126 2.397442
v 0.006749 0.000000 -0.008043
vn -2.397442 3.316126 2.011692
v 0.008043 0.000000 -0.006749
vn -2.710346 3.316126 1.564818
v 0.009093 0.000000 -0.005250
vn -2.940898 3.316125 1.070399
v 0.009867 0.000000 -0.003591
vn 1.070399 3.316125 2.940898
v -0.003591 0.000000 -0.009867
vn 0.543456 3.316125 3.082092
v -0.001823 0.000000 -0.010340
vn 0.000000 3.316126 3.129638
v -0.000000 0.000000 -0.010500
vn -0.543456 3.316125 3.082092
v 0.001823 0.000000 -0.010340
vn -1.070399 3.316125 2.940898
v 0.003591 0.000000 -0.009867
vn -1.564818 3.316126 2.710346
v 0.005250 0.000000 -0.009093
vn -2.397442 3.316126 -2.011692
v 0.008043 0.000000 0.006749
vn -2.710346 3.316126 -1.564818
v 0.009093 0.000000 0.005250
vn -2.940898 3.316125 -1.070399
v 0.009867 0.000000 0.003591
vn -2.011692 3.316126 -2.397442
v 0.006749 0.000000 0.008043
vn -1.564818 3.316126 -2.710346
v 0.005250 0.000000 0.009093
vn -1.070399 3.316125 -2.940898
v 0.003591 0.000000 0.009867
vn -3.082092 3.316125 0.543456
v 0.010340 0.000000 -0.001823
vn -3.129638 3.316126 -0.000000
v 0.010500 0.000000 0.000000
vn -3.082092 3.316125 -0.543456
v 0.010340 0.000000 0.001823
vn -0.543456 3.316125 -3.082092
v 0.001823 0.000000 0.010340
vn 0.000000 3.316126 0.000000
v -0.000000 0.000000 0.010500
vn 0.543456 3.316125 -3.082092
v -0.001823 0.000000 0.010340
vn 0.000000 2.967060 -3.129638
v -0.000000 -0.050000 0.010500
vn 0.000000 0.000000 -3.129638
v -0.000000 0.000000 0.010500
vn -0.543456 2.967060 -3.082092
v 0.001823 -0.050000 0.010340
vn -1.070399 2.967060 -2.940898
v 0.003591 -0.050000 0.009867
vn -1.564818 2.967060 -2.710346
v 0.005250 -0.050000 0.009093
vn -2.011692 2.967060 -2.397442
v 0.006749 -0.050000 0.008043
vn -2.397442 2.967060 -2.011692
v 0.008043 -0.050000 0.006749
vn -2.710346 2.967060 -1.564818
v 0.009093 -0.050000 0.005250
vn -2.940898 2.967060 -1.070399
v 0.009867 -0.050000 0.003591
vn -3.082092 2.967060 -0.543456
v 0.010340 -0.050000 0.001823
vn -3.129638 2.967060 -0.000000
v 0.010500 -0.050000 0.000000
vn -3.082092 2.967060 0.543456
v 0.010340 -0.050000 -0.001823
vn -2.940898 2.967060 1.070399
v 0.009867 -0.050000 -0.003591
vn -2.710346 2.967060 1.564818
v 0.009093 -0.050000 -0.005250
vn -2.397442 2.967060 2.011692
v 0.008043 -0.050000 -0.006749
vn -2.011692 2.967060 2.397442
v 0.006749 -0.050000 -0.008043
vn -1.564818 2.967060 2.710346
v 0.005250 -0.050000 -0.009093
vn -1.070399 2.967060 2.940898
v 0.003591 -0.050000 -0.009867
vn -0.543456 2.967060 3.082092
v 0.001823 -0.050000 -0.010340
vn 0.000000 2.967060 3.129638
v -0.000000 -0.050000 -0.010500
vn 0.543456 2.967060 3.082092
v -0.001823 -0.050000 -0.010340
vn 1.070399 2.967060 2.940898
v -0.003591 -0.050000 -0.009867
vn 1.564818 2.967060 2.710346
v -0.005250 -0.050000 -0.009093
vn 2.011692 2.967060 2.397442
v -0.006749 -0.050000 -0.008043
vn 2.397442 2.967060 2.011692
v -0.008043 -0.050000 -0.006749
vn 2.710346 2.967060 1.564818
v -0.009093 -0.050000 -0.005250
vn 2.940898 2.967060 1.070399
v -0.009867 -0.050000 -0.003591
vn 3.082092 2.967060 0.543456
v -0.010340 -0.050000 -0.001823
vn 3.129638 2.967060 -0.000000
v -0.010500 -0.050000 0.000000
vn 3.082092 2.967060 -0.543456
v -0.010340 -0.050000 0.001823
vn 2.940898 2.967060 -1.070399
v -0.009867 -0.050000 0.003591
vn 2.710346 2.967060 -1.564818
v -0.009093 -0.050000 0.005250
vn 2.397442 2.967060 -2.011692
v -0.008043 -0.050000 0.006749
vn 2.011692 2.967060 -2.397442
v -0.006749 -0.050000 0.008043
vn 1.564818 2.967060 -2.710346
v -0.005250 -0.050000 0.009093
vn 1.070399 2.967060 -2.940898
v -0.003591 -0.050000 0.009867
vn 0.543456 2.967060 -3.082092
v -0.001823 -0.050000 0.010340
vn 0.000000 6.283185 0.000000
v -0.000000 -0.050000 0.000000
# 82 vertices, 0 vertices normals

f 1//1 2//2 3//3
f 3//3 2//2 4//4
f 5//5 1//1 6//6
f 6//6 1//1 3//3
f 7//7 5//5 8//8
f 8//8 5//5 6//6
f 2//2 7//7 4//4
f 4//4 7//7 8//8
f 5//5 7//7 1//1
f 1//1 7//7 2//2
f 9//9 10//10 4//4
f 10//10 11//11 4//4
f 4//4 11//11 12//12
f 4//4 12//12 13//13
f 14//14 15//15 3//3
f 3//3 15//15 16//16
f 13//13 17//17 4//4
f 4//4 17//17 18//18
f 4//4 18//18 3//3
f 3//3 18//18 19//19
f 3//3 19//19 14//14
f 16//16 20//20 3//3
f 3//3 20//20 21//21
f 3//3 21//21 22//22
f 23//23 24//24 6//6
f 6//6 24//24 25//25
f 6//6 25//25 26//26
f 22//22 27//27 3//3
f 3//3 27//27 28//28
f 3//3 28//28 6//6
f 6//6 28//28 29//29
f 6//6 29//29 30//30
f 30//30 31//31 6//6
f 6//6 31//31 32//32
f 6//6 32//32 23//23
f 33//33 8//8 34//34
f 34//34 8//8 35//35
f 33//33 36//36 8//8
f 8//8 36//36 37//37
f 8//8 37//37 38//38
f 26//26 39//39 6//6
f 6//6 39//39 40//40
f 6//6 40//40 8//8
f 8//8 40//40 41//41
f 8//8 41//41 35//35
f 38//38 42//42 8//8
f 8//8 42//42 43//43
f 8//8 43//43 4//4
f 4//4 43//43 44//44
f 4//4 44//44 9//9
f 45//45 46//46 47//47
f 47//47 46//46 42//42
f 47//47 42//42 48//48
f 48//48 42//42 38//38
f 48//48 38//38 49//49
f 49//49 38//38 37//37
f 49//49 37//37 50//50
f 50//50 37//37 36//36
f 50//50 36//36 51//51
f 51//51 36//36 33//33
f 51//51 33//33 52//52
f 52//52 33//33 34//34
f 52//52 34//34 53//53
f 53//53 34//34 35//35
f 53//53 35//35 54//54
f 54//54 35//35 41//41
f 54//54 41//41 55//55
f 55//55 41//41 40//40
f 55//55 40//40 56//56
f 56//56 40//40 39//39
f 56//56 39//39 57//57
f 57//57 39//39 26//26
f 57//57 26//26 58//58
f 58//58 26//26 25//25
f 58//58 25//25 59//59
f 59//59 25//25 24//24
f 59//59 24//24 60//60
f 60//60 24//24 23//23
f 60//60 23//23 61//61
f 61//61 23//23 32//32
f 61//61 32//32 62//62
f 62//62 32//32 31//31
f 62//62 31//31 63//63
f 63//63 31//31 30//30
f 63//63 30//30 64//64
f 64//64 30//30 29//29
f 64//64 29//29 65//65
f 65//65 29//29 28//28
f 65//65 28//28 66//66
f 66//66 28//28 27//27
f 66//66 27//27 67//67
f 67//67 27//27 22//22
f 67//67 22//22 68//68
f 68//68 22//22 21//21
f 68//68 21//21 69//69
f 69//69 21//21 20//20
f 69//69 20//20 70//70
f 70//70 20//20 16//16
f 70//70 16//16 71//71
f 71//71 16//16 15//15
f 71//71 15//15 72//72
f 72//72 15//15 14//14
f 72//72 14//14 73//73
f 73//73 14//14 19//19
f 73//73 19//19 74//74
f 74//74 19//19 18//18
f 74//74 18//18 75//75
f 75//75 18//18 17//17
f 75//75 17//17 76//76
f 76//76 17//17 13//13
f 76//76 13//13 77//77
f 77//77 13//13 12//12
f 77//77 12//12 78//78
f 78//78 12//12 11//11
f 78//78 11//11 79//79
f 79//79 11//11 10//10
f 79//79 10//10 80//80
f 80//80 10//10 9//9
f 80//80 9//9 81//81
f 81//81 9//9 44//44
f 81//81 44//44 45//45
f 45//45 44//44 46//46
f 80//80 81//81 82//82
f 82//82 81//81 45//45
f 82//82 45//45 47//47
f 77//77 78//78 82//82
f 82//82 78//78 79//79
f 82//82 79//79 80//80
f 74//74 75//75 82//82
f 82//82 75//75 76//76
f 82//82 76//76 77//77
f 71//71 72//72 82//82
f 82//82 72//72 73//73
f 82//82 73//73 74//74
f 68//68 69//69 82//82
f 82//82 69//69 70//70
f 82//82 70//70 71//71
f 65//65 66//66 82//82
f 82//82 66//66 67//67
f 82//82 67//67 68//68
f 62//62 63//63 82//82
f 82//82 63//63 64//64
f 82//82 64//64 65//65
f 59//59 60//60 82//82
f 82//82 60//60 61//61
f 82//82 61//61 62//62
f 56//56 57//57 82//82
f 82//82 57//57 58//58
f 82//82 58//58 59//59
f 53//53 54//54 82//82
f 82//82 54//54 55//55
f 82//82 55//55 56//56
f 50//50 51//51 82//82
f 82//82 51//51 52//52
f 82//82 52//52 53//53
f 47//47 48//48 82//82
f 82//82 48//48 49//49
f 82//82 49//49 50//50
# 158 faces, 0 coords texture

# End of File
